<?xml version="1.0" encoding="UTF-8"?>
<svg viewBox="-4 -4 9 9" preserveAspectRatio="none" version="1.1" xmlns="http://www.w3.org/2000/svg" xmlns:xlink="http://www.w3.org/1999/xlink">
    <path fill-rule="nonzero" d="M-100,-100  h300 v300 h-300 z M0.5,0 C0.424,0,0.348,0.011,0.282,0.031 C0.248,0.042,0.216,0.055,0.188,0.071 C0.158,0.087,0.132,0.106,0.11,0.127 C0.068,0.168,0.037,0.223,0.019,0.292 C0.002,0.355,-0.004,0.427,0.002,0.501 C0.008,0.573,0.024,0.645,0.05,0.709 C0.076,0.776,0.113,0.833,0.154,0.873 C0.197,0.914,0.25,0.946,0.312,0.968 C0.37,0.989,0.435,1,0.5,1 C0.565,1,0.63,0.989,0.688,0.968 C0.75,0.946,0.803,0.914,0.846,0.873 C0.887,0.833,0.924,0.776,0.95,0.709 C0.976,0.645,0.992,0.573,0.998,0.501 C1,0.427,0.998,0.355,0.981,0.292 C0.963,0.223,0.932,0.168,0.89,0.127 C0.868,0.106,0.842,0.087,0.812,0.071 C0.784,0.055,0.752,0.042,0.718,0.031 C0.652,0.011,0.576,0,0.5,0"></path>
</svg>
